<?xml version="1.0" encoding="utf-8"?>
<!-- Generator: Adobe Illustrator 15.0.0, SVG Export Plug-In . SVG Version: 6.00 Build 0)  -->
<!DOCTYPE svg PUBLIC "-//W3C//DTD SVG 1.1//EN" "http://www.w3.org/Graphics/SVG/1.1/DTD/svg11.dtd">
<svg version="1.1" xmlns="http://www.w3.org/2000/svg" xmlns:xlink="http://www.w3.org/1999/xlink" x="0px" y="0px" width="1000px"
	 height="1000px" viewBox="0 0 1000 1000" enable-background="new 0 0 1000 1000" xml:space="preserve">
<g id="图层_1">
	<g id="图层_2">
		
			<rect x="1.5" y="2" fill="#CDE9F5" stroke="#FFFFFF" stroke-width="8" stroke-linecap="round" stroke-linejoin="round" stroke-miterlimit="10" width="1000" height="1000"/>
	</g>
	<g id="图层_1_1_">
		<g id="LWPOLYLINE">
			<polyline fill="#8CC48C" stroke="#111111" stroke-width="4" stroke-miterlimit="10" points="172.661,699.267 888.974,670.498 
				888.974,637.903 927.283,637.468 925.884,583.484 819.489,586.724 811.846,389.63 992.666,382.417 990.5,329.041 
				932.393,329.401 930.832,296.722 808.53,301.543 43.924,329.466 44.953,366.493 10.471,369.065 12.016,421.006 113.916,417.406 
				120.92,602.218 8.567,608.211 10.167,652.959 50.15,652.959 50.906,703.294 172.661,699.267 			"/>
		</g>
		<g id="LWPOLYLINE_1_">
			<polyline fill="#4A917A" stroke="#232323" stroke-width="2" stroke-miterlimit="10" points="933.371,335.184 985.859,335.184 
				988.849,378.336 937.691,379 933.371,335.184 			"/>
		</g>
		<g id="LWPOLYLINE_2_">
			<polyline fill="#4A917A" stroke="#232323" stroke-width="2" stroke-miterlimit="10" points="823.418,332.196 928.392,329.541 
				926.729,301.325 822.661,305.459 823.418,332.196 			"/>
		</g>
		<g id="LWPOLYLINE_3_">
			<polyline fill="#4A917A" stroke="#232323" stroke-width="2" stroke-miterlimit="10" points="808.53,301.543 811.48,375.637 
				767.743,377.867 765.068,303.393 808.53,301.543 			"/>
		</g>
		<g id="LWPOLYLINE_4_">
			<polyline fill="#4A917A" stroke="#232323" stroke-width="2" stroke-miterlimit="10" points="767.743,377.867 765.068,303.393 
				664.207,306.961 666.44,380.989 767.743,377.867 			"/>
		</g>
		<g id="LWPOLYLINE_5_">
			<polyline fill="none" stroke="#232323" stroke-width="2" stroke-miterlimit="10" points="599.576,383.868 617.19,382.854 
				613.59,308.662 			"/>
		</g>
		<g id="LWPOLYLINE_6_">
			
				<line fill="none" stroke="#232323" stroke-width="2" stroke-miterlimit="10" x1="597.396" y1="346.55" x2="615.115" y2="346.005"/>
		</g>
		<g id="LWPOLYLINE_7_">
			
				<line fill="none" stroke="#232323" stroke-width="2" stroke-miterlimit="10" x1="545.877" y1="385.23" x2="583.221" y2="383.868"/>
		</g>
		<g id="LWPOLYLINE_8_">
			
				<line fill="none" stroke="#232323" stroke-width="2" stroke-miterlimit="10" x1="545.059" y1="348.185" x2="581.587" y2="346.822"/>
		</g>
		<g id="LWPOLYLINE_9_">
			
				<line fill="none" stroke="#232323" stroke-width="2" stroke-miterlimit="10" x1="564.956" y1="384.412" x2="562.777" y2="310.594"/>
		</g>
		<g id="LWPOLYLINE_10_">
			
				<line fill="none" stroke="#232323" stroke-width="2" stroke-miterlimit="10" x1="497.354" y1="387.136" x2="531.156" y2="385.775"/>
		</g>
		<g id="LWPOLYLINE_11_">
			
				<line fill="none" stroke="#232323" stroke-width="2" stroke-miterlimit="10" x1="496.809" y1="350.363" x2="529.521" y2="349.273"/>
		</g>
		<g id="LWPOLYLINE_12_">
			
				<line fill="none" stroke="#232323" stroke-width="2" stroke-miterlimit="10" x1="514.8" y1="386.591" x2="511.803" y2="312.229"/>
		</g>
		<g id="LWPOLYLINE_13_">
			<polyline fill="none" stroke="#232323" stroke-width="2" stroke-miterlimit="10" points="481.705,387.468 464.466,388.275 
				461.504,314.523 			"/>
		</g>
		<g id="LWPOLYLINE_14_">
			
				<line fill="none" stroke="#232323" stroke-width="2" stroke-miterlimit="10" x1="377.184" y1="391.507" x2="450.114" y2="389.011"/>
		</g>
		<g id="LWPOLYLINE_15_">
			
				<line fill="none" stroke="#232323" stroke-width="2" stroke-miterlimit="10" x1="413.648" y1="390.51" x2="410.652" y2="316.135"/>
		</g>
		<g id="LWPOLYLINE_16_">
			<polyline fill="none" stroke="#232323" stroke-width="2" stroke-miterlimit="10" points="346.15,392.341 362.634,391.841 
				359.97,317.802 			"/>
		</g>
		<g id="LWPOLYLINE_17_">
			
				<line fill="none" stroke="#232323" stroke-width="2" stroke-miterlimit="10" x1="344.152" y1="355.57" x2="361.302" y2="355.071"/>
		</g>
		<g id="LWPOLYLINE_18_">
			
				<line fill="none" stroke="#232323" stroke-width="2" stroke-miterlimit="10" x1="291.869" y1="357.401" x2="328.332" y2="356.236"/>
		</g>
		<g id="LWPOLYLINE_19_">
			
				<line fill="none" stroke="#232323" stroke-width="2" stroke-miterlimit="10" x1="294.2" y1="394.004" x2="329.498" y2="393.172"/>
		</g>
		<g id="LWPOLYLINE_20_">
			
				<line fill="none" stroke="#232323" stroke-width="2" stroke-miterlimit="10" x1="312.516" y1="393.672" x2="309.519" y2="319.798"/>
		</g>
		<g id="LWPOLYLINE_21_">
			
				<line fill="none" stroke="#232323" stroke-width="2" stroke-miterlimit="10" x1="245.844" y1="395.85" x2="278.146" y2="394.851"/>
		</g>
		<g id="LWPOLYLINE_22_">
			
				<line fill="none" stroke="#232323" stroke-width="2" stroke-miterlimit="10" x1="243.512" y1="359.412" x2="276.814" y2="358.247"/>
		</g>
		<g id="LWPOLYLINE_23_">
			
				<line fill="none" stroke="#232323" stroke-width="2" stroke-miterlimit="10" x1="261.828" y1="395.184" x2="258.83" y2="321.643"/>
		</g>
		<g id="LWPOLYLINE_24_">
			
				<line fill="none" stroke="#232323" stroke-width="2" stroke-miterlimit="10" x1="193.347" y1="397.847" x2="229.978" y2="396.849"/>
		</g>
		<g id="LWPOLYLINE_25_">
			
				<line fill="none" stroke="#232323" stroke-width="2" stroke-miterlimit="10" x1="191.849" y1="361.576" x2="228.646" y2="360.079"/>
		</g>
		<g id="LWPOLYLINE_26_">
			
				<line fill="none" stroke="#232323" stroke-width="2" stroke-miterlimit="10" x1="210.83" y1="397.515" x2="208.166" y2="323.142"/>
		</g>
		<g id="LWPOLYLINE_27_">
			
				<line fill="none" stroke="#232323" stroke-width="2" stroke-miterlimit="10" x1="143.188" y1="399.518" x2="177.821" y2="398.686"/>
		</g>
		<g id="LWPOLYLINE_28_">
			
				<line fill="none" stroke="#232323" stroke-width="2" stroke-miterlimit="10" x1="158.506" y1="362.581" x2="175.824" y2="362.082"/>
		</g>
		<g id="LWPOLYLINE_29_">
			
				<line fill="none" stroke="#232323" stroke-width="2" stroke-miterlimit="10" x1="160.671" y1="399.019" x2="157.507" y2="325.477"/>
		</g>
		<g id="LWPOLYLINE_30_">
			
				<line fill="none" stroke="#232323" stroke-width="2" stroke-miterlimit="10" x1="136.028" y1="392.03" x2="133.198" y2="326.143"/>
		</g>
		<g id="LWPOLYLINE_31_">
			<polyline fill="none" stroke="#232323" stroke-width="2" stroke-miterlimit="10" points="127.87,400.35 111.885,400.35 
				109.886,327.141 			"/>
		</g>
		<g id="LWPOLYLINE_32_">
			<polyline fill="#4A917A" stroke="#232323" stroke-width="2" stroke-miterlimit="10" points="136.028,392.03 133.201,326.206 
				109.886,327.141 111.885,400.35 127.87,400.35 136.028,392.03 			"/>
		</g>
		<g id="LWPOLYLINE_33_">
			<polyline fill="#4A917A" stroke="#232323" stroke-width="2" stroke-miterlimit="10" points="136.028,392.03 143.188,399.518 
				160.675,399.098 157.507,325.477 133.201,326.206 136.028,392.03 			"/>
		</g>
		<g id="LWPOLYLINE_35_">
			<polyline fill="#4A917A" stroke="#232323" stroke-width="2" stroke-miterlimit="10" points="107.921,366.239 12.068,371.693 
				13.328,418.115 109.6,415.599 107.921,366.239 			"/>
		</g>
		<g id="LWPOLYLINE_36_">
			<polygon fill="#4A917A" stroke="#232323" stroke-width="2" stroke-miterlimit="10" points="11.47,610.841 12.566,651.638 
				58.514,650.785 57.661,608.402 			"/>
		</g>
		<g id="LWPOLYLINE_37_">
			<polygon fill="#4A917A" stroke="#232323" stroke-width="2" stroke-miterlimit="10" points="53.989,701.718 121.217,699.92 
				120.365,678.82 53.516,680.712 			"/>
		</g>
		<g id="LWPOLYLINE_38_">
			
				<line fill="none" stroke="#232323" stroke-width="2" stroke-miterlimit="10" x1="120.92" y1="602.218" x2="121.26" y2="611.171"/>
		</g>
		<g id="LWPOLYLINE_39_">
			
				<line fill="none" stroke="#232323" stroke-width="2" stroke-miterlimit="10" x1="124.84" y1="700.77" x2="122.456" y2="627.136"/>
		</g>
		<g id="LWPOLYLINE_40_">
			<polyline fill="#4A917A" stroke="#232323" stroke-width="2" stroke-miterlimit="10" points="617.19,382.854 613.59,308.662 
				664.207,306.961 666.44,380.989 617.19,382.854 			"/>
		</g>
		<g id="LWPOLYLINE_41_">
			<polygon fill="#4A917A" stroke="#232323" stroke-width="2" stroke-miterlimit="10" points="885.207,668.889 885.426,637.978 
				823.559,639.731 824.875,671.3 			"/>
		</g>
		<g id="LWPOLYLINE_42_">
			<polyline fill="none" stroke="#232323" stroke-width="2" stroke-miterlimit="10" points="822.793,673.048 820.149,602.133 
				804.281,602.572 			"/>
		</g>
		<g id="LWPOLYLINE_43_">
			<polyline fill="none" stroke="#232323" stroke-width="2" stroke-miterlimit="10" points="780.036,674.809 777.393,603.013 
				791.057,602.572 			"/>
		</g>
		<g id="LWPOLYLINE_44_">
			
				<line fill="none" stroke="#232323" stroke-width="2" stroke-miterlimit="10" x1="800.756" y1="673.928" x2="798.551" y2="609.18"/>
		</g>
		<g id="LWPOLYLINE_45_">
			<polyline fill="#4A917A" stroke="#232323" stroke-width="2" stroke-miterlimit="10" points="798.551,609.18 804.281,602.572 
				820.149,602.133 822.793,673.048 800.756,673.928 798.551,609.18 			"/>
		</g>
		<g id="LWPOLYLINE_46_">
			<polygon fill="#4A917A" stroke="#232323" stroke-width="2" stroke-miterlimit="10" points="798.551,609.18 791.057,602.572 
				777.393,603.013 780.036,674.809 800.756,673.928 			"/>
		</g>
		<g id="LWPOLYLINE_47_">
			<polygon fill="#4A917A" stroke="#232323" stroke-width="2" stroke-miterlimit="10" points="780.036,674.809 777.393,603.013 
				727.021,605.949 729.74,676.607 			"/>
		</g>
		<g id="LWPOLYLINE_48_">
			<polyline fill="#4A917A" stroke="#232323" stroke-width="2" stroke-miterlimit="10" points="727.021,605.949 675.996,607.543 
				678.737,678.975 729.74,676.607 727.021,605.949 			"/>
		</g>
		<g id="LWPOLYLINE_49_">
			<polygon fill="#4A917A" stroke="#232323" stroke-width="2" stroke-miterlimit="10" points="675.996,607.543 625.648,609.194 
				628.529,680.947 678.736,678.941 			"/>
		</g>
		<g id="LWPOLYLINE_50_">
			<polyline fill="#4A917A" stroke="#232323" stroke-width="2" stroke-miterlimit="10" points="625.648,609.194 574.997,611.444 
				577.549,682.983 628.529,680.947 625.648,609.194 			"/>
		</g>
		<g id="LWPOLYLINE_51_">
			<polyline fill="#4A917A" stroke="#232323" stroke-width="2" stroke-miterlimit="10" points="574.997,611.444 524.032,613.299 
				527.239,684.916 577.549,682.983 574.997,611.444 			"/>
		</g>
		<g id="LWPOLYLINE_52_">
			<polygon fill="#4A917A" stroke="#232323" stroke-width="2" stroke-miterlimit="10" points="527.239,684.916 524.032,613.299 
				473.849,615.132 476.394,687.095 			"/>
		</g>
		<g id="LWPOLYLINE_53_">
			<polygon fill="#4A917A" stroke="#232323" stroke-width="2" stroke-miterlimit="10" points="476.394,687.068 473.849,615.132 
				423.005,617.132 425.466,689.369 			"/>
		</g>
		<g id="LWPOLYLINE_54_">
			<polyline fill="#4A917A" stroke="#232323" stroke-width="2" stroke-miterlimit="10" points="425.457,689.114 423.005,617.132 
				372.483,618.669 375.56,690.906 425.457,689.114 			"/>
		</g>
		<g id="LWPOLYLINE_55_">
			<polyline fill="#4A917A" stroke="#232323" stroke-width="2" stroke-miterlimit="10" points="375.56,690.906 372.483,618.669 
				271.891,621.742 274.659,695.209 375.56,690.906 			"/>
		</g>
		<g id="LWPOLYLINE_56_">
			<polygon fill="#4A917A" stroke="#232323" stroke-width="2" stroke-miterlimit="10" points="274.659,695.209 271.891,621.742 
				220.66,623.879 223.121,697.346 			"/>
		</g>
		<g id="LWPOLYLINE_58_">
			<polyline fill="#4A917A" stroke="#232323" stroke-width="2" stroke-miterlimit="10" points="172.661,699.267 169.902,625.724 
				122.456,627.136 124.843,700.849 172.661,699.267 			"/>
		</g>
		<g id="LWPOLYLINE_59_">
			
				<line fill="none" stroke="#232323" stroke-width="2" stroke-miterlimit="10" x1="113.916" y1="417.406" x2="139.633" y2="416.375"/>
		</g>
		<g id="LWPOLYLINE_60_">
			
				<line fill="none" stroke="#232323" stroke-width="2" stroke-miterlimit="10" x1="115.708" y1="454.628" x2="131.814" y2="454.168"/>
		</g>
		<g id="LWPOLYLINE_61_">
			
				<line fill="none" stroke="#232323" stroke-width="2" stroke-miterlimit="10" x1="116.823" y1="492.319" x2="132.491" y2="491.932"/>
		</g>
		<g id="LWPOLYLINE_62_">
			
				<line fill="none" stroke="#232323" stroke-width="2" stroke-miterlimit="10" x1="118.379" y1="532.954" x2="134.533" y2="532.954"/>
		</g>
		<g id="LWPOLYLINE_63_">
			
				<line fill="none" stroke="#232323" stroke-width="2" stroke-miterlimit="10" x1="120.04" y1="572.63" x2="136.495" y2="572.177"/>
		</g>
		<g id="LWPOLYLINE_64_">
			
				<line fill="none" stroke="#232323" stroke-width="2" stroke-miterlimit="10" x1="121.26" y1="611.171" x2="146.555" y2="610.437"/>
		</g>
		<g id="LWPOLYLINE_65_">
			
				<line fill="none" stroke="#232323" stroke-width="2" stroke-miterlimit="10" x1="161.123" y1="415.464" x2="169.504" y2="609.207"/>
		</g>
		<g id="LWPOLYLINE_66_">
			<line fill="none" stroke="#232323" stroke-width="2" stroke-miterlimit="10" x1="155.079" y1="415.65" x2="178.8" y2="415.006"/>
		</g>
		<g id="LWPOLYLINE_67_">
			
				<line fill="none" stroke="#232323" stroke-width="2" stroke-miterlimit="10" x1="146.688" y1="453.705" x2="180.252" y2="452.737"/>
		</g>
		<g id="LWPOLYLINE_68_">
			
				<line fill="none" stroke="#232323" stroke-width="2" stroke-miterlimit="10" x1="148.14" y1="491.275" x2="181.543" y2="490.308"/>
		</g>
		<g id="LWPOLYLINE_69_">
			
				<line fill="none" stroke="#232323" stroke-width="2" stroke-miterlimit="10" x1="149.451" y1="532.643" x2="183.237" y2="531.75"/>
		</g>
		<g id="LWPOLYLINE_70_">
			
				<line fill="none" stroke="#232323" stroke-width="2" stroke-miterlimit="10" x1="150.882" y1="571.228" x2="184.847" y2="570.334"/>
		</g>
		<g id="LWPOLYLINE_71_">
			
				<line fill="none" stroke="#232323" stroke-width="2" stroke-miterlimit="10" x1="161.763" y1="609.302" x2="185.73" y2="608.923"/>
		</g>
		<g id="LWPOLYLINE_72_">
			
				<line fill="none" stroke="#232323" stroke-width="2" stroke-miterlimit="10" x1="194.552" y1="413.387" x2="230.781" y2="412.969"/>
		</g>
		<g id="LWPOLYLINE_73_">
			
				<line fill="none" stroke="#232323" stroke-width="2" stroke-miterlimit="10" x1="198.669" y1="451.669" x2="232.234" y2="450.7"/>
		</g>
		<g id="LWPOLYLINE_74_">
			
				<line fill="none" stroke="#232323" stroke-width="2" stroke-miterlimit="10" x1="200.123" y1="489.239" x2="233.525" y2="488.271"/>
		</g>
		<g id="LWPOLYLINE_75_">
			
				<line fill="none" stroke="#232323" stroke-width="2" stroke-miterlimit="10" x1="201.433" y1="530.605" x2="235.22" y2="529.714"/>
		</g>
		<g id="LWPOLYLINE_76_">
			
				<line fill="none" stroke="#232323" stroke-width="2" stroke-miterlimit="10" x1="202.863" y1="569.19" x2="236.829" y2="568.299"/>
		</g>
		<g id="LWPOLYLINE_77_">
			
				<line fill="none" stroke="#232323" stroke-width="2" stroke-miterlimit="10" x1="201.076" y1="607.664" x2="237.712" y2="606.885"/>
		</g>
		<g id="LWPOLYLINE_78_">
			
				<line fill="none" stroke="#232323" stroke-width="2" stroke-miterlimit="10" x1="247.679" y1="411.857" x2="279.322" y2="411.104"/>
		</g>
		<g id="LWPOLYLINE_79_">
			
				<line fill="none" stroke="#232323" stroke-width="2" stroke-miterlimit="10" x1="248.055" y1="449.124" x2="280.829" y2="448.371"/>
		</g>
		<g id="LWPOLYLINE_80_">
			
				<line fill="none" stroke="#232323" stroke-width="2" stroke-miterlimit="10" x1="249.562" y1="487.519" x2="282.711" y2="486.39"/>
		</g>
		<g id="LWPOLYLINE_81_">
			
				<line fill="none" stroke="#232323" stroke-width="2" stroke-miterlimit="10" x1="262.747" y1="411.481" x2="265.76" y2="487.143"/>
		</g>
		<g id="LWPOLYLINE_82_">
			
				<line fill="none" stroke="#232323" stroke-width="2" stroke-miterlimit="10" x1="251.151" y1="529.003" x2="284.515" y2="528.312"/>
		</g>
		<g id="LINE">
			
				<line fill="none" stroke="#232323" stroke-width="2" stroke-miterlimit="10" x1="261.275" y1="605.567" x2="288.197" y2="604.647"/>
		</g>
		<g id="LINE_1_">
			
				<line fill="none" stroke="#232323" stroke-width="2" stroke-miterlimit="10" x1="253.222" y1="567.63" x2="286.355" y2="566.711"/>
		</g>
		<g id="LINE_2_">
			
				<line fill="none" stroke="#232323" stroke-width="2" stroke-miterlimit="10" x1="267.258" y1="528.541" x2="270.709" y2="605.339"/>
		</g>
		<g id="LINE_3_">
			
				<line fill="none" stroke="#232323" stroke-width="2" stroke-miterlimit="10" x1="294.292" y1="410.586" x2="330.273" y2="409.743"/>
		</g>
		<g id="LINE_4_">
			
				<line fill="none" stroke="#232323" stroke-width="2" stroke-miterlimit="10" x1="296.119" y1="448.507" x2="332.24" y2="447.522"/>
		</g>
		<g id="LINE_5_">
			
				<line fill="none" stroke="#232323" stroke-width="2" stroke-miterlimit="10" x1="303.807" y1="604.278" x2="339.348" y2="603.183"/>
		</g>
		<g id="LINE_6_">
			
				<line fill="none" stroke="#232323" stroke-width="2" stroke-miterlimit="10" x1="301.832" y1="565.914" x2="337.812" y2="564.817"/>
		</g>
		<g id="LINE_7_">
			
				<line fill="none" stroke="#232323" stroke-width="2" stroke-miterlimit="10" x1="300.297" y1="527.111" x2="335.837" y2="525.798"/>
		</g>
		<g id="LINE_8_">
			
				<line fill="none" stroke="#232323" stroke-width="2" stroke-miterlimit="10" x1="297.869" y1="486.02" x2="334.272" y2="485.037"/>
		</g>
		<g id="LINE_9_">
			
				<line fill="none" stroke="#232323" stroke-width="2" stroke-miterlimit="10" x1="313.518" y1="410.24" x2="320.937" y2="603.755"/>
		</g>
		<g id="LINE_10_">
			
				<line fill="none" stroke="#232323" stroke-width="2" stroke-miterlimit="10" x1="345.591" y1="408.608" x2="363.737" y2="408.288"/>
		</g>
		<g id="LINE_11_">
			
				<line fill="none" stroke="#232323" stroke-width="2" stroke-miterlimit="10" x1="347.035" y1="446.158" x2="365.021" y2="445.516"/>
		</g>
		<g id="LINE_12_">
			
				<line fill="none" stroke="#232323" stroke-width="2" stroke-miterlimit="10" x1="348.725" y1="483.954" x2="366.69" y2="483.855"/>
		</g>
		<g id="LINE_13_">
			
				<line fill="none" stroke="#232323" stroke-width="2" stroke-miterlimit="10" x1="363.737" y1="408.288" x2="371.826" y2="602.269"/>
		</g>
		<g id="LINE_14_">
			
				<line fill="none" stroke="#232323" stroke-width="2" stroke-miterlimit="10" x1="351.138" y1="525.566" x2="368.823" y2="525.375"/>
		</g>
		<g id="LINE_15_">
			
				<line fill="none" stroke="#232323" stroke-width="2" stroke-miterlimit="10" x1="350.758" y1="522.905" x2="368.442" y2="522.337"/>
		</g>
		<g id="LINE_16_">
			
				<line fill="none" stroke="#232323" stroke-width="2" stroke-miterlimit="10" x1="299.508" y1="524.502" x2="335.346" y2="523.315"/>
		</g>
		<g id="LINE_17_">
			
				<line fill="none" stroke="#232323" stroke-width="2" stroke-miterlimit="10" x1="198.526" y1="527.83" x2="235.499" y2="526.812"/>
		</g>
		<g id="LINE_18_">
			
				<line fill="none" stroke="#232323" stroke-width="2" stroke-miterlimit="10" x1="149.526" y1="530.068" x2="182.91" y2="528.994"/>
		</g>
		<g id="LINE_19_">
			
				<line fill="none" stroke="#232323" stroke-width="2" stroke-miterlimit="10" x1="380.806" y1="407.077" x2="445.372" y2="405.192"/>
		</g>
		<g id="LINE_20_">
			
				<line fill="none" stroke="#232323" stroke-width="2" stroke-miterlimit="10" x1="389.633" y1="600.817" x2="454.207" y2="598.832"/>
		</g>
		<g id="LINE_21_">
			
				<line fill="none" stroke="#232323" stroke-width="2" stroke-miterlimit="10" x1="464.905" y1="404.316" x2="472.621" y2="598.534"/>
		</g>
		<g id="LINE_22_">
			
				<line fill="none" stroke="#232323" stroke-width="2" stroke-miterlimit="10" x1="460.8" y1="404.851" x2="483.316" y2="403.765"/>
		</g>
		<g id="LINE_23_">
			
				<line fill="none" stroke="#232323" stroke-width="2" stroke-miterlimit="10" x1="468.781" y1="598.534" x2="477.727" y2="598.019"/>
		</g>
		<g id="LINE_24_">
			
				<line fill="none" stroke="#232323" stroke-width="2" stroke-miterlimit="10" x1="466.504" y1="441.957" x2="484.933" y2="441.509"/>
		</g>
		<g id="LINE_25_">
			
				<line fill="none" stroke="#232323" stroke-width="2" stroke-miterlimit="10" x1="467.852" y1="479.837" x2="486.73" y2="479.237"/>
		</g>
		<g id="LINE_26_">
			
				<line fill="none" stroke="#232323" stroke-width="2" stroke-miterlimit="10" x1="469.695" y1="520.328" x2="488.35" y2="520.845"/>
		</g>
		<g id="LINE_27_">
			
				<line fill="none" stroke="#232323" stroke-width="2" stroke-miterlimit="10" x1="470.899" y1="559.7" x2="490.015" y2="559.262"/>
		</g>
		<g id="LINE_28_">
			
				<line fill="none" stroke="#232323" stroke-width="2" stroke-miterlimit="10" x1="498.864" y1="402.958" x2="543.362" y2="401.564"/>
		</g>
		<g id="LINE_29_">
			
				<line fill="none" stroke="#232323" stroke-width="2" stroke-miterlimit="10" x1="500.507" y1="440.724" x2="536.894" y2="439.604"/>
		</g>
		<g id="LINE_30_">
			
				<line fill="none" stroke="#232323" stroke-width="2" stroke-miterlimit="10" x1="502.246" y1="478.619" x2="538.544" y2="477.768"/>
		</g>
		<g id="LINE_31_">
			
				<line fill="none" stroke="#232323" stroke-width="2" stroke-miterlimit="10" x1="503.404" y1="517.318" x2="540.011" y2="516.327"/>
		</g>
		<g id="LINE_32_">
			
				<line fill="none" stroke="#232323" stroke-width="2" stroke-miterlimit="10" x1="503.801" y1="520.428" x2="540.406" y2="519.304"/>
		</g>
		<g id="LINE_33_">
			
				<line fill="none" stroke="#232323" stroke-width="2" stroke-miterlimit="10" x1="505.576" y1="558.34" x2="542.161" y2="557.436"/>
		</g>
		<g id="LINE_34_">
			
				<line fill="none" stroke="#232323" stroke-width="2" stroke-miterlimit="10" x1="501.436" y1="597.146" x2="543.604" y2="595.781"/>
		</g>
		<g id="LINE_35_">
			
				<line fill="none" stroke="#232323" stroke-width="2" stroke-miterlimit="10" x1="515.579" y1="402.401" x2="523.365" y2="596.459"/>
		</g>
		<g id="LINE_36_">
			
				<line fill="none" stroke="#232323" stroke-width="2" stroke-miterlimit="10" x1="566.589" y1="400.261" x2="569.159" y2="476.002"/>
		</g>
		<g id="LINE_37_">
			
				<line fill="none" stroke="#232323" stroke-width="2" stroke-miterlimit="10" x1="552.886" y1="438.987" x2="586.073" y2="438.345"/>
		</g>
		<g id="LINE_38_">
			
				<line fill="none" stroke="#232323" stroke-width="2" stroke-miterlimit="10" x1="553.956" y1="476.857" x2="588.002" y2="475.788"/>
		</g>
		<g id="LINE_39_">
			
				<line fill="none" stroke="#232323" stroke-width="2" stroke-miterlimit="10" x1="556.024" y1="518.397" x2="589.896" y2="517.353"/>
		</g>
		<g id="LINE_40_">
			
				<line fill="none" stroke="#232323" stroke-width="2" stroke-miterlimit="10" x1="557.906" y1="556.63" x2="591.567" y2="554.959"/>
		</g>
		<g id="LINE_41_">
			
				<line fill="none" stroke="#232323" stroke-width="2" stroke-miterlimit="10" x1="559.161" y1="594.442" x2="582.995" y2="593.607"/>
		</g>
		<g id="LINE_42_">
			
				<line fill="none" stroke="#232323" stroke-width="2" stroke-miterlimit="10" x1="571.077" y1="517.77" x2="573.797" y2="593.816"/>
		</g>
		<g id="LINE_43_">
			
				<line fill="none" stroke="#232323" stroke-width="2" stroke-miterlimit="10" x1="596.655" y1="400.215" x2="636.706" y2="398.614"/>
		</g>
		<g id="LINE_44_">
			
				<line fill="none" stroke="#232323" stroke-width="2" stroke-miterlimit="10" x1="602.605" y1="437.264" x2="637.166" y2="436.121"/>
		</g>
		<g id="LINE_45_">
			<line fill="none" stroke="#232323" stroke-width="2" stroke-miterlimit="10" x1="603.291" y1="475" x2="639.452" y2="473.856"/>
		</g>
		<g id="LINE_46_">
			
				<line fill="none" stroke="#232323" stroke-width="2" stroke-miterlimit="10" x1="605.89" y1="513.421" x2="641.398" y2="512.304"/>
		</g>
		<g id="LINE_47_">
			
				<line fill="none" stroke="#232323" stroke-width="2" stroke-miterlimit="10" x1="606.03" y1="516.773" x2="641.679" y2="515.797"/>
		</g>
		<g id="LINE_48_">
			
				<line fill="none" stroke="#232323" stroke-width="2" stroke-miterlimit="10" x1="607.604" y1="593.389" x2="645.425" y2="592.209"/>
		</g>
		<g id="LINE_49_">
			
				<line fill="none" stroke="#232323" stroke-width="2" stroke-miterlimit="10" x1="607.802" y1="554.81" x2="643.454" y2="554.22"/>
		</g>
		<g id="LINE_50_">
			
				<line fill="none" stroke="#232323" stroke-width="2" stroke-miterlimit="10" x1="621.58" y1="516.371" x2="625.031" y2="592.863"/>
		</g>
		<g id="LINE_51_">
			
				<line fill="none" stroke="#232323" stroke-width="2" stroke-miterlimit="10" x1="616.556" y1="399.557" x2="621.539" y2="512.927"/>
		</g>
		<g id="LINE_52_">
			
				<line fill="none" stroke="#232323" stroke-width="2" stroke-miterlimit="10" x1="211.858" y1="413.523" x2="216.595" y2="527.629"/>
		</g>
		<g id="LINE_53_">
			
				<line fill="none" stroke="#232323" stroke-width="2" stroke-miterlimit="10" x1="216.609" y1="530.145" x2="219.955" y2="607.109"/>
		</g>
		<g id="LINE_54_">
			
				<line fill="none" stroke="#232323" stroke-width="2" stroke-miterlimit="10" x1="660.311" y1="591.037" x2="675.137" y2="590.872"/>
		</g>
		<g id="LINE_55_">
			
				<line fill="none" stroke="#232323" stroke-width="2" stroke-miterlimit="10" x1="675.137" y1="590.872" x2="667.486" y2="396.88"/>
		</g>
		<g id="LINE_56_">
			
				<line fill="none" stroke="#232323" stroke-width="2" stroke-miterlimit="10" x1="667.486" y1="396.88" x2="651.613" y2="397.66"/>
		</g>
		<g id="LINE_57_">
			
				<line fill="none" stroke="#232323" stroke-width="2" stroke-miterlimit="10" x1="653.529" y1="435.049" x2="668.831" y2="434.67"/>
		</g>
		<g id="LINE_58_">
			
				<line fill="none" stroke="#232323" stroke-width="2" stroke-miterlimit="10" x1="655.554" y1="472.962" x2="670.35" y2="472.456"/>
		</g>
		<g id="LINE_59_">
			
				<line fill="none" stroke="#232323" stroke-width="2" stroke-miterlimit="10" x1="656.961" y1="514.418" x2="672.035" y2="514.067"/>
		</g>
		<g id="LINE_60_">
			
				<line fill="none" stroke="#232323" stroke-width="2" stroke-miterlimit="10" x1="656.613" y1="511.527" x2="671.948" y2="511.352"/>
		</g>
		<g id="LINE_61_">
			
				<line fill="none" stroke="#232323" stroke-width="2" stroke-miterlimit="10" x1="658.852" y1="553.148" x2="673.609" y2="552.761"/>
		</g>
		<g id="LWPOLYLINE_83_">
			<polyline fill="#4A917A" stroke="#232323" stroke-width="2" stroke-miterlimit="10" points="751.944,397.566 772.159,397.034 
				773.401,419.362 753.008,420.071 751.944,397.566 			"/>
		</g>
		<g id="LWPOLYLINE_84_">
			<polyline fill="#4A917A" stroke="#232323" stroke-width="2" stroke-miterlimit="10" points="676.595,437.407 805.573,430.196 
				812.195,586.196 681.872,591.817 676.595,437.407 			"/>
		</g>
		<g id="LWPOLYLINE_85_">
			<polygon fill="#4A917A" stroke="#232323" stroke-width="2" stroke-miterlimit="10" points="822.853,636.681 924.811,634.897 
				923.024,586.744 821.068,589.42 			"/>
		</g>
		<g id="LWPOLYLINE_86_">
			<polyline fill="#33997C" stroke="#232323" stroke-width="2" stroke-miterlimit="10" points="303.807,604.278 320.937,603.755 
				320.349,585.148 303.807,604.278 			"/>
		</g>
		<g id="LINE_62_">
			
				<line fill="none" stroke="#232323" stroke-width="2" stroke-miterlimit="10" x1="301.832" y1="565.914" x2="319.466" y2="565.378"/>
		</g>
		<g id="LINE_63_">
			
				<line fill="none" stroke="#232323" stroke-width="2" stroke-miterlimit="10" x1="319.466" y1="565.378" x2="320.349" y2="585.148"/>
		</g>
		<g id="LINE_65_">
			
				<line fill="none" stroke="#232323" stroke-width="2" stroke-miterlimit="10" x1="268.996" y1="567.192" x2="286.355" y2="566.711"/>
		</g>
		<g id="LINE_67_">
			
				<line fill="none" stroke="#232323" stroke-width="2" stroke-miterlimit="10" x1="269.809" y1="587.544" x2="268.996" y2="567.192"/>
		</g>
		<g id="LINE_69_">
			
				<line fill="none" stroke="#232323" stroke-width="2" stroke-miterlimit="10" x1="269.809" y1="587.544" x2="270.705" y2="605.245"/>
		</g>
		<g id="LINE_70_">
			
				<line fill="none" stroke="#232323" stroke-width="2" stroke-miterlimit="10" x1="270.705" y1="605.245" x2="288.197" y2="604.647"/>
		</g>
		<g id="LINE_71_">
			
				<line fill="none" stroke="#232323" stroke-width="2" stroke-miterlimit="10" x1="284.515" y1="528.312" x2="267.264" y2="528.67"/>
		</g>
		<g id="LINE_72_">
			
				<line fill="none" stroke="#232323" stroke-width="2" stroke-miterlimit="10" x1="267.264" y1="528.67" x2="268.283" y2="550.536"/>
		</g>
		<g id="LINE_75_">
			
				<line fill="none" stroke="#232323" stroke-width="2" stroke-miterlimit="10" x1="286.355" y1="566.711" x2="268.996" y2="567.192"/>
		</g>
		<g id="LINE_76_">
			
				<line fill="none" stroke="#232323" stroke-width="2" stroke-miterlimit="10" x1="268.996" y1="567.192" x2="268.331" y2="550.579"/>
		</g>
		<g id="LINE_77_">
			
				<line fill="none" stroke="#232323" stroke-width="2" stroke-miterlimit="10" x1="300.297" y1="527.111" x2="317.974" y2="526.457"/>
		</g>
		<g id="LINE_78_">
			
				<line fill="none" stroke="#232323" stroke-width="2" stroke-miterlimit="10" x1="317.974" y1="526.457" x2="318.823" y2="547.925"/>
		</g>
		<g id="LINE_80_">
			
				<line fill="none" stroke="#232323" stroke-width="2" stroke-miterlimit="10" x1="301.832" y1="565.914" x2="319.466" y2="565.378"/>
		</g>
		<g id="LINE_81_">
			
				<line fill="none" stroke="#232323" stroke-width="2" stroke-miterlimit="10" x1="319.466" y1="565.378" x2="318.823" y2="547.925"/>
		</g>
		<g id="LWPOLYLINE_87_">
			<polyline fill="#33997C" stroke="#232323" stroke-width="2" stroke-miterlimit="10" points="261.275,605.567 270.705,605.245 
				270.946,612.726 261.652,612.998 261.275,605.567 			"/>
		</g>
		<g id="LWPOLYLINE_88_">
			<polygon fill="#33997C" stroke="#232323" stroke-width="2" stroke-miterlimit="10" points="308.981,410.311 315.34,409.985 
				315.068,405.64 308.709,405.749 			"/>
		</g>
		<g id="LWPOLYLINE_89_">
			<polyline fill="#4A917A" stroke="#232323" stroke-width="2" stroke-miterlimit="10" points="161.125,415.486 155.079,415.65 
				155.299,422.802 161.368,422.802 161.125,415.486 			"/>
		</g>
		<g id="LWPOLYLINE_90_">
			<polyline fill="#33997C" stroke="#232323" stroke-width="2" stroke-miterlimit="10" points="249.562,487.519 263.359,487.02 
				263.909,496.74 250.328,497.198 249.562,487.519 			"/>
		</g>
		<g id="LWPOLYLINE_91_">
			<polygon fill="#33997C" stroke="#232323" stroke-width="2" stroke-miterlimit="10" points="268.773,486.928 282.711,486.39 
				283.364,496.465 269.324,496.465 			"/>
		</g>
		<g id="LINE_83_">
			
				<line fill="none" stroke="#232323" stroke-width="2" stroke-miterlimit="10" x1="363.737" y1="408.288" x2="464.918" y2="404.652"/>
		</g>
		<g id="LINE_84_">
			
				<line fill="none" stroke="#232323" stroke-width="2" stroke-miterlimit="10" x1="464.918" y1="404.652" x2="472.613" y2="598.314"/>
		</g>
		<g id="LINE_85_">
			
				<line fill="none" stroke="#232323" stroke-width="2" stroke-miterlimit="10" x1="472.613" y1="598.314" x2="371.826" y2="602.269"/>
		</g>
		<g id="LINE_86_">
			
				<line fill="none" stroke="#232323" stroke-width="2" stroke-miterlimit="10" x1="371.826" y1="602.269" x2="363.737" y2="408.288"/>
		</g>
		<circle fill="#4A917A" stroke="#232323" stroke-width="2" stroke-miterlimit="10" cx="695.626" cy="413.625" r="17.792"/>
		<polygon fill="#4A917A" stroke="#232323" stroke-width="2" stroke-miterlimit="10" points="49.625,366.25 107.5,361.75 
			105.375,328.375 45.875,330.5 		"/>
		<polygon fill="#4A917A" stroke="#232323" stroke-width="2" stroke-miterlimit="10" points="169.902,625.724 220.66,623.879 
			223.121,697.346 172.661,699.267 		"/>
		<g>
			<rect x="440.5" y="100.5" fill="none" width="378" height="181"/>
			<path stroke="#232323" stroke-width="2" stroke-miterlimit="10" d="M445.42,204.421c10.08-0.48,11.04-2.52,11.04-11.28v-49.198
				c0-8.76-0.96-10.8-11.04-11.28v-1.68h50.998c0,6.48,0.6,12.72,1.08,18.479l-2.16,0.24c-2.28-12.72-5.4-15.84-19.199-15.84h-10.08
				c-3.12,0-3.36,0.24-3.36,3.36v29.159h13.799c11.28,0,12.24-1.08,14.279-9.12h2.04v23.279h-2.04
				c-2.04-9.359-3-10.799-14.279-10.799h-13.799v23.399c0,8.76,1.08,10.68,13.199,11.28v1.68H445.42V204.421z"/>
			<path stroke="#232323" stroke-width="2" stroke-miterlimit="10" d="M508.178,149.343c0.721-4.8,1.2-9.959,1.681-14.879h42.478
				l0.84,1.44c-11.639,23.039-21.959,47.038-32.398,70.557l-7.199,0.96l-0.84-1.08c13.679-21.6,24.839-43.679,34.559-65.998h-25.56
				c-8.159,0-8.76,0.84-11.64,9H508.178z"/>
		</g>
	</g>
	<g>
	</g>
</g>
<g id="图层_2_1_">
	<polygon fill="#4A917A" stroke="#232323" stroke-width="2" stroke-miterlimit="10" points="301.75,565.875 319.25,565.5 
		320.125,585.5 	"/>
	<polygon fill="#4A917A" stroke="#232323" stroke-width="2" stroke-miterlimit="10" points="301.75,565.875 319.25,565.5 
		318.5,544.125 	"/>
	<polygon fill="#4A917A" stroke="#232323" stroke-width="2" stroke-miterlimit="10" points="318.5,544.125 317.875,526.5 
		300.25,527 	"/>
	<polygon fill="#4A917A" stroke="#232323" stroke-width="2" stroke-miterlimit="10" points="284.5,528.375 268.125,547.875 
		267.375,528.75 	"/>
	<polygon fill="#4A917A" stroke="#232323" stroke-width="2" stroke-miterlimit="10" points="268.125,547.875 269,567.125 
		286.375,566.625 	"/>
	<polygon fill="#4A917A" stroke="#232323" stroke-width="2" stroke-miterlimit="10" points="270,588.375 270.625,605.375 
		288.25,604.5 	"/>
	<polygon fill="#4A917A" stroke="#232323" stroke-width="2" stroke-miterlimit="10" points="270,588.375 269,567.125 
		286.375,566.625 	"/>
	
		<polygon fill="#33997C" stroke="#000000" stroke-width="2" stroke-linecap="round" stroke-linejoin="round" stroke-miterlimit="10" points="
		124.75,417 139.834,416.333 139.334,410.083 124.75,410.75 	"/>
</g>
</svg>
