<?xml version="1.0" encoding="utf-8"?>
<!-- Generator: Adobe Illustrator 15.0.0, SVG Export Plug-In . SVG Version: 6.00 Build 0)  -->
<!DOCTYPE svg PUBLIC "-//W3C//DTD SVG 1.1//EN" "http://www.w3.org/Graphics/SVG/1.1/DTD/svg11.dtd">
<svg version="1.1" id="图层_1" xmlns="http://www.w3.org/2000/svg" xmlns:xlink="http://www.w3.org/1999/xlink" x="0px" y="0px"
	 width="1000px" height="1000px" viewBox="0 0 1000 1000" enable-background="new 0 0 1000 1000" xml:space="preserve">
<g>
	<polyline fill="none" stroke="#000000" stroke-miterlimit="10" points="571.06,195.837 565.878,194.11 522.304,198.885 
		524.131,235.037 0.307,287.135 	"/>
	<polyline fill="none" stroke="#000000" stroke-miterlimit="10" points="6.705,339.334 232.609,317.398 300.662,709.603 	"/>
	<polyline fill="none" stroke="#000000" stroke-miterlimit="10" points="33.419,756.521 589.343,660.45 854.861,802.427 
		916.112,787.699 947.805,805.37 	"/>
	<line fill="none" stroke="#000000" stroke-miterlimit="10" x1="633.935" y1="284.189" x2="633.935" y2="284.189"/>
	<line fill="none" stroke="#000000" stroke-miterlimit="10" x1="672.737" y1="337.507" x2="672.737" y2="337.507"/>
	<line fill="none" stroke="#000000" stroke-miterlimit="10" x1="711.842" y1="391.837" x2="711.842" y2="391.837"/>
	<line fill="none" stroke="#000000" stroke-miterlimit="10" x1="750.238" y1="444.951" x2="750.238" y2="444.951"/>
	<line fill="none" stroke="#000000" stroke-miterlimit="10" x1="788.938" y1="499.486" x2="788.938" y2="499.486"/>
	<line fill="none" stroke="#000000" stroke-miterlimit="10" x1="827.945" y1="552.803" x2="827.945" y2="552.803"/>
	<polygon fill="none" stroke="#000000" stroke-miterlimit="10" points="593.508,228.03 594.931,229.858 572.482,245.802 
		611.181,300.135 633.935,284.189 594.931,229.858 	"/>
	<polygon fill="none" stroke="#000000" stroke-miterlimit="10" points="633.935,284.189 611.181,300.135 650.188,353.451 
		672.737,337.507 	"/>
	<polygon fill="none" stroke="#000000" stroke-miterlimit="10" points="672.737,337.507 650.188,353.451 689.192,407.783 
		711.842,391.837 	"/>
	<polygon fill="none" stroke="#000000" stroke-miterlimit="10" points="711.842,391.837 689.192,407.783 727.894,461.2 
		750.238,444.951 	"/>
	<polygon fill="none" stroke="#000000" stroke-miterlimit="10" points="750.238,444.951 727.894,461.2 766.897,515.431 
		788.938,499.486 	"/>
	<polygon fill="none" stroke="#000000" stroke-miterlimit="10" points="788.938,499.486 766.897,515.431 806.003,569.257 
		827.945,552.803 	"/>
	<polygon fill="none" stroke="#000000" stroke-miterlimit="10" points="827.945,552.803 806.003,569.257 844.7,623.078 
		866.849,607.032 	"/>
	<line fill="none" stroke="#000000" stroke-miterlimit="10" x1="866.849" y1="607.032" x2="989.752" y2="777.037"/>
	<line fill="none" stroke="#000000" stroke-miterlimit="10" x1="991.379" y1="779.271" x2="991.379" y2="779.271"/>
	<line fill="none" stroke="#000000" stroke-miterlimit="10" x1="691.527" y1="683.508" x2="691.527" y2="683.508"/>
	<line fill="none" stroke="#000000" stroke-miterlimit="10" x1="750.544" y1="714.579" x2="750.544" y2="714.579"/>
	<line fill="none" stroke="#000000" stroke-miterlimit="10" x1="573.396" y1="600.433" x2="573.396" y2="600.433"/>
	<line fill="none" stroke="#000000" stroke-miterlimit="10" x1="556.432" y1="577.074" x2="556.432" y2="577.074"/>
	<line fill="none" stroke="#000000" stroke-miterlimit="10" x1="539.674" y1="554.634" x2="539.674" y2="554.634"/>
	<line fill="none" stroke="#000000" stroke-miterlimit="10" x1="554.4" y1="546.203" x2="554.4" y2="546.203"/>
	<line fill="none" stroke="#000000" stroke-miterlimit="10" x1="554.4" y1="542.646" x2="554.4" y2="542.646"/>
	<line fill="none" stroke="#000000" stroke-miterlimit="10" x1="504.832" y1="635.875" x2="504.832" y2="635.875"/>
	<line fill="none" stroke="#000000" stroke-miterlimit="10" x1="475.173" y1="591.296" x2="475.173" y2="591.296"/>
	<line fill="none" stroke="#000000" stroke-miterlimit="10" x1="720.07" y1="546.203" x2="720.07" y2="546.203"/>
	<line fill="none" stroke="#000000" stroke-miterlimit="10" x1="675.378" y1="527.216" x2="675.378" y2="527.216"/>
	<line fill="none" stroke="#000000" stroke-miterlimit="10" x1="611.487" y1="552.601" x2="611.487" y2="552.601"/>
	<line fill="none" stroke="#000000" stroke-miterlimit="10" x1="649.071" y1="491.565" x2="649.071" y2="491.565"/>
	<line fill="none" stroke="#000000" stroke-miterlimit="10" x1="684.316" y1="508.932" x2="684.316" y2="508.932"/>
	<line fill="none" stroke="#000000" stroke-miterlimit="10" x1="645.409" y1="454.701" x2="645.409" y2="454.701"/>
	<line fill="none" stroke="#000000" stroke-miterlimit="10" x1="553.894" y1="472.472" x2="553.894" y2="472.472"/>
	<line fill="none" stroke="#000000" stroke-miterlimit="10" x1="574.31" y1="388.792" x2="574.31" y2="388.792"/>
	<line fill="none" stroke="#000000" stroke-miterlimit="10" x1="558.666" y1="366.55" x2="558.666" y2="366.55"/>
	<line fill="none" stroke="#000000" stroke-miterlimit="10" x1="606.406" y1="401.385" x2="606.406" y2="401.385"/>
	<line fill="none" stroke="#000000" stroke-miterlimit="10" x1="569.232" y1="347.763" x2="569.232" y2="347.763"/>
	<line fill="none" stroke="#000000" stroke-miterlimit="10" x1="534.392" y1="332.429" x2="534.392" y2="332.429"/>
	<line fill="none" stroke="#000000" stroke-miterlimit="10" x1="518.139" y1="310.594" x2="518.139" y2="310.594"/>
	<line fill="none" stroke="#000000" stroke-miterlimit="10" x1="518.139" y1="310.594" x2="518.139" y2="310.594"/>
	<line fill="none" stroke="#000000" stroke-miterlimit="10" x1="539.267" y1="305.619" x2="539.267" y2="305.619"/>
	<line fill="none" stroke="#000000" stroke-miterlimit="10" x1="597.569" y1="547.929" x2="597.569" y2="547.929"/>
	<line fill="none" stroke="#000000" stroke-miterlimit="10" x1="593.911" y1="549.247" x2="593.911" y2="549.247"/>
	<line fill="none" stroke="#000000" stroke-miterlimit="10" x1="568.115" y1="513.5" x2="568.115" y2="513.5"/>
	<line fill="none" stroke="#000000" stroke-miterlimit="10" x1="564.051" y1="514.516" x2="564.051" y2="514.516"/>
	<line fill="none" stroke="#000000" stroke-miterlimit="10" x1="535.508" y1="472.574" x2="535.508" y2="472.574"/>
	<line fill="none" stroke="#000000" stroke-miterlimit="10" x1="533.172" y1="472.371" x2="533.172" y2="472.371"/>
	<line fill="none" stroke="#000000" stroke-miterlimit="10" x1="509.1" y1="436.725" x2="509.1" y2="436.725"/>
	<line fill="none" stroke="#000000" stroke-miterlimit="10" x1="506.966" y1="436.319" x2="506.966" y2="436.319"/>
	<line fill="none" stroke="#000000" stroke-miterlimit="10" x1="482.281" y1="394.376" x2="482.281" y2="394.376"/>
	<line fill="none" stroke="#000000" stroke-miterlimit="10" x1="480.656" y1="393.869" x2="480.656" y2="393.869"/>
	<line fill="none" stroke="#000000" stroke-miterlimit="10" x1="453.232" y1="355.582" x2="453.232" y2="355.582"/>
	<line fill="none" stroke="#000000" stroke-miterlimit="10" x1="451.403" y1="355.075" x2="451.403" y2="355.075"/>
	<line fill="none" stroke="#000000" stroke-miterlimit="10" x1="419.199" y1="354.364" x2="419.199" y2="354.364"/>
	<line fill="none" stroke="#000000" stroke-miterlimit="10" x1="419.103" y1="353.247" x2="419.103" y2="353.247"/>
	<line fill="none" stroke="#000000" stroke-miterlimit="10" x1="403.659" y1="366.754" x2="403.659" y2="366.754"/>
	<line fill="none" stroke="#000000" stroke-miterlimit="10" x1="403.659" y1="366.754" x2="403.659" y2="366.754"/>
	<line fill="none" stroke="#000000" stroke-miterlimit="10" x1="387.716" y1="343.904" x2="387.716" y2="343.904"/>
	<line fill="none" stroke="#000000" stroke-miterlimit="10" x1="332.459" y1="397.729" x2="332.459" y2="397.729"/>
	<line fill="none" stroke="#000000" stroke-miterlimit="10" x1="343.937" y1="415.196" x2="343.937" y2="415.196"/>
	<line fill="none" stroke="#000000" stroke-miterlimit="10" x1="360.9" y1="665.634" x2="360.9" y2="665.634"/>
	<line fill="none" stroke="#000000" stroke-miterlimit="10" x1="356.227" y1="640.14" x2="356.227" y2="640.14"/>
	<line fill="none" stroke="#000000" stroke-miterlimit="10" x1="351.25" y1="612.72" x2="351.25" y2="612.72"/>
	<line fill="none" stroke="#000000" stroke-miterlimit="10" x1="346.37" y1="585.808" x2="346.37" y2="585.808"/>
	<line fill="none" stroke="#000000" stroke-miterlimit="10" x1="342.006" y1="558.998" x2="342.006" y2="558.998"/>
	<polygon fill="none" stroke="#000000" stroke-miterlimit="10" points="991.379,779.271 987.316,782.423 993.817,790.644 
		997.88,787.296 	"/>
	<polygon fill="none" stroke="#000000" stroke-miterlimit="10" points="998.693,790.644 997.88,787.296 993.817,790.644 
		997.168,792.269 	"/>
	<polygon fill="none" stroke="#000000" stroke-miterlimit="10" points="942.823,789.018 941.198,790.745 941.908,794.81 
		945.159,791.456 	"/>
	<polygon fill="none" stroke="#000000" stroke-miterlimit="10" points="945.159,791.456 941.908,794.81 946.784,802.934 
		951.865,799.381 945.159,791.456 941.908,794.81 	"/>
	<polygon fill="none" stroke="#000000" stroke-miterlimit="10" points="691.527,683.508 750.544,714.579 737.238,738.647 
		679.238,706.967 	"/>
	<polygon fill="none" stroke="#000000" stroke-miterlimit="10" points="750.544,714.579 737.238,738.647 796.254,769.623 
		809.052,745.248 	"/>
	<polygon fill="none" stroke="#000000" stroke-miterlimit="10" points="573.396,600.433 519.864,639.226 536.727,661.973 
		589.648,622.772 	"/>
	<polygon fill="none" stroke="#000000" stroke-miterlimit="10" points="556.432,577.074 539.674,554.634 486.752,593.83 
		502.801,615.767 	"/>
	<polygon fill="none" stroke="#000000" stroke-miterlimit="10" points="539.674,554.634 524.03,532.49 470.398,571.285 
		486.752,593.83 	"/>
	<polygon fill="none" stroke="#000000" stroke-miterlimit="10" points="554.4,546.203 553.894,545.389 554.604,544.477 
		555.315,543.662 557.65,544.679 	"/>
	<polygon fill="none" stroke="#000000" stroke-miterlimit="10" points="554.4,542.646 559.379,545.084 562.73,542.344 
		559.379,538.178 	"/>
	<polygon fill="none" stroke="#000000" stroke-miterlimit="10" points="504.832,635.875 500.364,638.414 496.403,631.913 
		501.175,628.662 	"/>
	<polygon fill="none" stroke="#000000" stroke-miterlimit="10" points="475.173,591.296 470.5,593.83 474.459,601.143 
		479.336,598.095 	"/>
	<polygon fill="none" stroke="#000000" stroke-miterlimit="10" points="720.07,546.203 660.041,590.582 669.588,604.189 
		730.024,559.1 	"/>
	<polygon fill="none" stroke="#000000" stroke-miterlimit="10" points="675.378,527.216 621.031,566.511 637.388,588.651 
		691.527,549.351 	"/>
	<polygon fill="none" stroke="#000000" stroke-miterlimit="10" points="611.487,552.601 595.844,530.359 649.071,491.565 
		665.627,513.704 	"/>
	<polygon fill="none" stroke="#000000" stroke-miterlimit="10" points="649.071,491.565 595.844,530.359 579.389,508.118 
		633.225,469.325 	"/>
	<polygon fill="none" stroke="#000000" stroke-miterlimit="10" points="633.225,469.325 579.389,508.118 563.34,486.081 
		616.973,446.678 633.225,469.325 579.389,508.118 	"/>
	<polygon fill="none" stroke="#000000" stroke-miterlimit="10" points="684.316,508.932 679.34,512.18 683.301,518.477 
		688.379,515.431 	"/>
	<polygon fill="none" stroke="#000000" stroke-miterlimit="10" points="645.409,454.701 640.437,457.849 645.209,464.652 
		649.983,461.2 	"/>
	<polygon fill="none" stroke="#000000" stroke-miterlimit="10" points="553.894,472.472 607.423,433.577 591.068,411.032 
		537.944,450.232 	"/>
	<polygon fill="none" stroke="#000000" stroke-miterlimit="10" points="574.31,388.792 591.068,411.032 537.944,450.232 
		521.283,427.385 	"/>
	<polygon fill="none" stroke="#000000" stroke-miterlimit="10" points="558.666,366.55 574.31,388.792 521.283,427.385 
		505.239,405.345 	"/>
	<polygon fill="none" stroke="#000000" stroke-miterlimit="10" points="606.406,401.385 601.531,404.735 605.696,411.133 
		610.572,407.68 	"/>
	<polygon fill="none" stroke="#000000" stroke-miterlimit="10" points="569.232,347.763 564.356,351.115 568.418,357.918 
		573.396,355.075 	"/>
	<polygon fill="none" stroke="#000000" stroke-miterlimit="10" points="534.392,332.429 550.541,355.177 497.012,393.971 
		480.961,371.425 	"/>
	<polygon fill="none" stroke="#000000" stroke-miterlimit="10" points="518.139,310.594 534.392,332.429 480.961,371.425 
		464.607,349.084 	"/>
	<polygon fill="none" stroke="#000000" stroke-miterlimit="10" points="518.139,310.594 501.989,287.947 448.457,326.741 
		464.607,349.084 	"/>
	<polygon fill="none" stroke="#000000" stroke-miterlimit="10" points="539.267,305.619 533.781,308.868 538.449,316.078 
		542.72,313.133 	"/>
	<polygon fill="none" stroke="#000000" stroke-miterlimit="10" points="597.569,547.929 595.74,550.06 596.961,550.973 
		598.688,549.351 	"/>
	<polygon fill="none" stroke="#000000" stroke-miterlimit="10" points="593.911,549.247 598.586,551.989 593.406,556.152 
		590.257,551.787 	"/>
	<polygon fill="none" stroke="#000000" stroke-miterlimit="10" points="568.115,513.5 569.129,514.821 567.198,516.242 
		565.981,515.131 	"/>
	<polygon fill="none" stroke="#000000" stroke-miterlimit="10" points="564.051,514.516 568.927,517.056 563.441,521.017 
		560.393,517.056 	"/>
	<polygon fill="none" stroke="#000000" stroke-miterlimit="10" points="535.508,472.574 537.134,471.661 538.352,472.574 
		536.423,473.996 	"/>
	<polygon fill="none" stroke="#000000" stroke-miterlimit="10" points="533.172,472.371 537.74,475.113 532.66,479.784 
		529.615,475.723 	"/>
	<polygon fill="none" stroke="#000000" stroke-miterlimit="10" points="509.1,436.725 511.435,435.101 512.35,436.319 
		510.52,437.943 	"/>
	<polygon fill="none" stroke="#000000" stroke-miterlimit="10" points="506.966,436.319 511.435,438.76 506.762,443.429 
		503.614,439.366 	"/>
	<polygon fill="none" stroke="#000000" stroke-miterlimit="10" points="482.281,394.376 484.518,392.346 485.736,393.971 
		483.7,395.798 	"/>
	<polygon fill="none" stroke="#000000" stroke-miterlimit="10" points="480.656,393.869 485.127,396.814 480.049,400.469 
		476.798,396.307 	"/>
	<polygon fill="none" stroke="#000000" stroke-miterlimit="10" points="453.232,355.582 454.654,353.958 455.868,355.177 
		454.654,356.599 	"/>
	<polygon fill="none" stroke="#000000" stroke-miterlimit="10" points="451.403,355.075 455.976,357.716 450.994,361.574 
		447.341,357.513 	"/>
	<polygon fill="none" stroke="#000000" stroke-miterlimit="10" points="419.199,354.364 418.086,356.294 419.406,357.614 
		421.031,356.294 	"/>
	<polygon fill="none" stroke="#000000" stroke-miterlimit="10" points="419.103,353.247 423.268,349.594 426.518,353.552 
		422.962,356.395 	"/>
	<polygon fill="none" stroke="#000000" stroke-miterlimit="10" points="403.659,366.754 419.406,388.893 366.688,427.89 
		350.334,405.243 	"/>
	<polygon fill="none" stroke="#000000" stroke-miterlimit="10" points="403.659,366.754 387.716,343.904 334.186,383.51 
		350.334,405.243 	"/>
	<polygon fill="none" stroke="#000000" stroke-miterlimit="10" points="387.716,343.904 334.186,383.51 315.799,358.73 
		369.939,319.632 	"/>
	<polygon fill="none" stroke="#000000" stroke-miterlimit="10" points="332.459,397.729 327.887,400.469 331.646,407.883 
		336.618,404.635 	"/>
	<polygon fill="none" stroke="#000000" stroke-miterlimit="10" points="343.937,415.196 338.959,418.242 343.119,424.945 
		348.406,421.695 	"/>
	<polygon fill="none" stroke="#000000" stroke-miterlimit="10" points="525.35,670.201 519.864,639.226 297.211,679.035 
		302.393,707.979 	"/>
	<polygon fill="none" stroke="#000000" stroke-miterlimit="10" points="360.9,665.634 356.227,640.14 292.133,651.516 
		297.009,677.922 	"/>
	<polygon fill="none" stroke="#000000" stroke-miterlimit="10" points="356.227,640.14 351.25,612.72 287.664,624.196 
		292.133,651.516 	"/>
	<polygon fill="none" stroke="#000000" stroke-miterlimit="10" points="351.25,612.72 346.37,585.808 282.482,597.183 
		287.664,624.196 	"/>
	<polygon fill="none" stroke="#000000" stroke-miterlimit="10" points="346.37,585.808 342.006,558.998 277.303,569.968 
		282.482,597.183 	"/>
	<polygon fill="none" stroke="#000000" stroke-miterlimit="10" points="342.006,558.998 337.533,531.779 273.443,542.646 
		277.303,569.968 	"/>
</g>
<polyline fill="#FFFFFF" stroke="#000000" stroke-miterlimit="10" points="366.688,424.945 419.406,388.893 524.03,532.49 
	470.398,571.285 438.524,527.217 389.677,459.677 366.688,427.89 "/>
<text transform="matrix(1 0 0 1 827.9446 597.1833)" font-family="'AdobeSongStd-Light-GBpc-EUC-H'" font-size="12">A01</text>
<text transform="matrix(0.8964 0 0 1 788.9377 543.6619)" font-family="'AdobeSongStd-Light-GBpc-EUC-H'" font-size="12">A02</text>
<text transform="matrix(1 0 0 1 750.5442 491.5652)" font-family="'AdobeSongStd-Light-GBpc-EUC-H'" font-size="12">A03</text>
<text transform="matrix(1 0 0 1 711.842 437.9431)" font-family="'AdobeSongStd-Light-GBpc-EUC-H'" font-size="12">A04</text>
<text transform="matrix(1 0 0 1 672.7366 383.5105)" font-family="'AdobeSongStd-Light-GBpc-EUC-H'" font-size="12">A05</text>
<text transform="matrix(1 0 0 1 633.9348 325.4998)" font-family="'AdobeSongStd-Light-GBpc-EUC-H'" font-size="12">A06</text>
<text transform="matrix(1 0 0 1 594.4221 274.4998)" font-family="'AdobeSongStd-Light-GBpc-EUC-H'" font-size="12">A07</text>
<text transform="matrix(1 0 0 1 711.842 711.0779)" font-family="'AdobeSongStd-Light-GBpc-EUC-H'" font-size="12">E01</text>
<text transform="matrix(1 0 0 1 762.5002 738.6472)" font-family="'AdobeSongStd-Light-GBpc-EUC-H'" font-size="12">E02</text>
<text transform="matrix(2.1924 0 0 1 675.3792 580.3992)" font-family="'AdobeSongStd-Light-GBpc-EUC-H'" font-size="5.083">显示牌</text>
<text transform="matrix(1 0 0 1 645.4094 569.2566)" font-family="'AdobeSongStd-Light-GBpc-EUC-H'" font-size="12">B10</text>
<text transform="matrix(1 0 0 1 621.0305 530.3591)" font-family="'AdobeSongStd-Light-GBpc-EUC-H'" font-size="12">B09</text>
<text transform="matrix(1 0 0 1 603.2083 508.1179)" font-family="'AdobeSongStd-Light-GBpc-EUC-H'" font-size="12">B08</text>
<text transform="matrix(1 0 0 1 590.2571 480.1912)" font-family="'AdobeSongStd-Light-GBpc-EUC-H'" font-size="12">B07</text>
<text transform="matrix(1 0 0 1 562.7297 446.6785)" font-family="'AdobeSongStd-Light-GBpc-EUC-H'" font-size="12">B06</text>
<text transform="matrix(1 0 0 1 542.72 424.9451)" font-family="'AdobeSongStd-Light-GBpc-EUC-H'" font-size="12">B05</text>
<text transform="matrix(1 0 0 1 533.1721 400.4695)" font-family="'AdobeSongStd-Light-GBpc-EUC-H'" font-size="12">B04</text>
<text transform="matrix(1 0 0 1 504.8323 371.4246)" font-family="'AdobeSongStd-Light-GBpc-EUC-H'" font-size="12">B03</text>
<text transform="matrix(1 0 0 1 490.6116 347.7634)" font-family="'AdobeSongStd-Light-GBpc-EUC-H'" font-size="12">B02</text>
<text transform="matrix(1 0 0 1 550.5413 635.8748)" font-family="'AdobeSongStd-Light-GBpc-EUC-H'" font-size="12">C05</text>
<text transform="matrix(1 0 0 1 512.3499 591.2957)" font-family="'AdobeSongStd-Light-GBpc-EUC-H'" font-size="12">C04</text>
<text transform="matrix(1 0 0 1 499.4993 569.2566)" font-family="'AdobeSongStd-Light-GBpc-EUC-H'" font-size="12">C03</text>
<text transform="matrix(1 0 0 1 376.5002 400.4695)" font-family="'AdobeSongStd-Light-GBpc-EUC-H'" font-size="12">C02</text>
<text transform="matrix(1 0 0 1 360.8997 374.5735)" font-family="'AdobeSongStd-Light-GBpc-EUC-H'" font-size="12">C01</text>
<text transform="matrix(1 0 0 1 426.5178 480.1912)" font-family="'AdobeSongStd-Light-GBpc-EUC-H'" font-size="12">休息厅</text>
<text transform="matrix(1 0 0 1 316.866 661.9734)" font-family="'AdobeSongStd-Light-GBpc-EUC-H'" font-size="12">D05</text>
<text transform="matrix(1 0 0 1 311.8367 635.8748)" font-family="'AdobeSongStd-Light-GBpc-EUC-H'" font-size="12">D04</text>
<text transform="matrix(1 0 0 1 307.7244 607.032)" font-family="'AdobeSongStd-Light-GBpc-EUC-H'" font-size="12">D03</text>
<text transform="matrix(1 0 0 1 307.7244 580.3992)" font-family="'AdobeSongStd-Light-GBpc-EUC-H'" font-size="12">D02</text>
<text transform="matrix(1 0 0 1 297.2112 554.6335)" font-family="'AdobeSongStd-Light-GBpc-EUC-H'" font-size="12">D01</text>
<text transform="matrix(1 0 0 1 387.7161 683.5076)" font-family="'AdobeSongStd-Light-GBpc-EUC-H'" font-size="12">砖地</text>
<text transform="matrix(1 0 0 1 139.5002 556.1521)" font-family="'AdobeSongStd-Light-GBpc-EUC-H'" font-size="12">篮球场</text>
</svg>
