<?xml version="1.0" encoding="utf-8"?>
<!-- Generator: Adobe Illustrator 15.0.0, SVG Export Plug-In . SVG Version: 6.00 Build 0)  -->
<!DOCTYPE svg PUBLIC "-//W3C//DTD SVG 1.1//EN" "http://www.w3.org/Graphics/SVG/1.1/DTD/svg11.dtd">
<svg version="1.1" id="图层_1" xmlns="http://www.w3.org/2000/svg" xmlns:xlink="http://www.w3.org/1999/xlink" x="0px" y="0px"
	 width="1000px" height="1000px" viewBox="0 0 1000 1000" enable-background="new 0 0 1000 1000" xml:space="preserve">


<g>
	<line fill="none" stroke="#000000" stroke-miterlimit="10" x1="6.885" y1="349.454" x2="277.107" y2="322.514"/>
	<line fill="none" stroke="#000000" stroke-miterlimit="10" x1="412.513" y1="467.923" x2="381.573" y2="490.273"/>
	<line fill="none" stroke="#000000" stroke-miterlimit="10" x1="496.494" y1="584.437" x2="465.554" y2="606.787"/>
	<line fill="none" stroke="#000000" stroke-miterlimit="10" x1="277.107" y1="322.514" x2="354.627" y2="765.197"/>
	<line fill="none" stroke="#000000" stroke-miterlimit="10" x1="403.929" y1="455.599" x2="412.854" y2="467.923"/>
	<line fill="none" stroke="#000000" stroke-miterlimit="10" x1="516.555" y1="611.972" x2="496.494" y2="584.521"/>
	<line fill="none" stroke="#000000" stroke-miterlimit="10" x1="570.784" y1="572.199" x2="458.413" y2="416.082"/>
	<polygon fill="none" stroke="#000000" stroke-miterlimit="10" points="349.017,733.074 415.318,721.685 410.559,693.98 
		344.257,705.455 	"/>
	<polygon fill="none" stroke="#000000" stroke-miterlimit="10" points="344.257,705.455 410.559,693.98 405.798,666.361 
		339.496,677.748 	"/>
	<polygon fill="none" stroke="#000000" stroke-miterlimit="10" points="339.496,677.748 405.798,666.361 401.122,638.656 
		334.737,650.13 	"/>
	<polygon fill="none" stroke="#000000" stroke-miterlimit="10" points="334.482,650.469 401.122,638.656 396.107,611.375 
		329.807,622.763 	"/>
	<polygon fill="none" stroke="#000000" stroke-miterlimit="10" points="329.721,622.763 396.107,611.375 391.348,583.671 
		325.047,595.144 	"/>
	<polygon fill="none" stroke="#000000" stroke-miterlimit="10" points="580.138,225.887 619.577,280.447 642.272,264.045 
		602.918,209.401 	"/>
	<line fill="none" stroke="#000000" stroke-miterlimit="10" x1="878.662" y1="591.998" x2="1003.19" y2="764.857"/>
	<polygon fill="none" stroke="#000000" stroke-miterlimit="10" points="533.13,634.576 587.448,594.804 570.869,572.199 
		516.555,611.972 	"/>
	<polygon fill="none" stroke="#000000" stroke-miterlimit="10" points="549.705,657.267 604.022,617.41 587.448,594.804 
		533.13,634.576 	"/>
	<polygon fill="none" stroke="#000000" stroke-miterlimit="10" points="503.125,375.714 557.696,336.366 541.289,313.591 
		486.719,353.023 	"/>
	<polygon fill="none" stroke="#000000" stroke-miterlimit="10" points="403.929,455.599 458.243,415.827 441.668,393.135 
		387.352,432.993 	"/>
	<polygon fill="none" stroke="#000000" stroke-miterlimit="10" points="387.352,432.993 441.668,393.135 425.093,370.531 
		370.777,410.303 	"/>
	<polygon fill="none" stroke="#000000" stroke-miterlimit="10" points="535.935,421.266 590.506,381.834 574.103,359.057 
		519.531,398.49 	"/>
	<polygon fill="none" stroke="#000000" stroke-miterlimit="10" points="519.531,398.49 574.103,359.057 557.696,336.366 
		503.125,375.714 	"/>
	<polygon fill="none" stroke="#000000" stroke-miterlimit="10" points="560.67,455.429 615.242,415.997 598.835,393.306 
		544.267,432.74 	"/>
	<polygon fill="none" stroke="#000000" stroke-miterlimit="10" points="577.075,478.206 631.647,438.773 615.242,415.997 
		560.67,455.429 	"/>
	<polygon fill="none" stroke="#000000" stroke-miterlimit="10" points="593.483,500.98 648.052,461.549 631.647,438.773 
		577.075,478.206 	"/>
	<polygon fill="none" stroke="#000000" stroke-miterlimit="10" points="619.49,537.015 674.064,497.582 657.657,474.806 
		603.087,514.24 	"/>
	<polygon fill="none" stroke="#000000" stroke-miterlimit="10" points="635.899,559.791 690.554,520.357 674.064,497.582 
		619.49,537.015 	"/>
	<polygon fill="none" stroke="#000000" stroke-miterlimit="10" points="652.217,582.652 706.956,543.048 690.554,520.357 
		635.982,559.791 	"/>
	<polygon fill="none" stroke="#000000" stroke-miterlimit="10" points="678.568,618.769 733.14,579.337 716.734,556.646 
		662.162,595.996 	"/>
	<line fill="none" stroke="#000000" stroke-miterlimit="10" x1="1.531" y1="295.829" x2="534.916" y2="243.053"/>
	<line fill="none" stroke="#000000" stroke-miterlimit="10" x1="534.916" y1="243.053" x2="528.454" y2="177.785"/>
	<line fill="none" stroke="#000000" stroke-miterlimit="10" x1="576.651" y1="172.942" x2="528.709" y2="177.701"/>
	<polygon fill="#FFDF7F" stroke="#000000" stroke-miterlimit="10" points="600.198,206.68 601.131,206.51 597.137,187.983 	"/>
	<polygon fill="#FFDF7F" stroke="#000000" stroke-miterlimit="10" points="601.131,206.51 597.137,187.983 598.156,187.814 	"/>
	<polygon fill="none" stroke="#000000" stroke-miterlimit="10" points="600.198,206.68 601.131,206.51 598.156,187.814 
		597.137,187.983 	"/>
	<polygon fill="none" stroke="#000000" stroke-miterlimit="10" points="619.577,280.531 658.934,335.177 681.712,318.775 
		642.359,264.045 	"/>
	<polygon fill="none" stroke="#000000" stroke-miterlimit="10" points="658.934,335.261 698.373,389.822 721.071,373.42 
		681.712,318.775 	"/>
	<polygon fill="none" stroke="#000000" stroke-miterlimit="10" points="698.289,389.906 737.73,444.468 760.511,428.065 
		721.071,373.42 	"/>
	<polygon fill="none" stroke="#000000" stroke-miterlimit="10" points="737.646,444.636 777,499.197 799.78,482.796 
		760.424,428.149 	"/>
	<polygon fill="none" stroke="#000000" stroke-miterlimit="10" points="777,499.281 816.441,553.843 839.135,537.439 
		799.78,482.796 	"/>
	<polygon fill="none" stroke="#000000" stroke-miterlimit="10" points="816.356,553.927 855.796,608.486 878.662,591.998 
		839.135,537.439 	"/>
	<line fill="none" stroke="#000000" stroke-miterlimit="10" x1="349.017" y1="733.074" x2="576.056" y2="693.302"/>
	<line fill="none" stroke="#000000" stroke-miterlimit="10" x1="82.962" y1="812.449" x2="648.649" y2="714.718"/>
	<polygon fill="none" stroke="#000000" stroke-miterlimit="10" points="576.056,693.302 630.371,653.529 613.797,630.839 
		559.483,670.609 	"/>
	<line fill="none" stroke="#000000" stroke-miterlimit="10" x1="381.573" y1="490.273" x2="465.554" y2="606.787"/>
	<line fill="none" stroke="#000000" stroke-miterlimit="10" x1="576.056" y1="693.302" x2="581.75" y2="726.275"/>
	<polygon fill="none" stroke="#000000" stroke-miterlimit="10" points="809.641,739.617 745.89,718.031 736.879,744.548 
		800.631,766.302 	"/>
	<polygon fill="none" stroke="#000000" stroke-miterlimit="10" points="745.89,717.947 682.138,696.275 673.044,722.962 
		736.879,744.548 	"/>
	<line fill="none" stroke="#000000" stroke-miterlimit="10" x1="902.888" y1="778.625" x2="938.076" y2="828"/>
	<line fill="none" stroke="#000000" stroke-miterlimit="10" x1="902.888" y1="778.625" x2="800.631" y2="766.302"/>
	<line fill="none" stroke="#000000" stroke-miterlimit="10" x1="648.649" y1="714.718" x2="673.044" y2="722.962"/>
</g>
<text transform="matrix(1 0 0 1 839.135 580.3992)" font-family="'ArialMT'" font-size="12">A01</text>
<text transform="matrix(0.8964 0 0 1 799.7795 520.3572)" font-family="'ArialMT'" font-size="12">A02</text>
<text transform="matrix(1 0 0 1 760.511 474.8064)" font-family="'ArialMT'" font-size="12">A03</text>
<text transform="matrix(1 0 0 1 725.0706 416.0818)" font-family="'ArialMT'" font-size="12">A04</text>
<text transform="matrix(1 0 0 1 681.7122 363.5105)" font-family="'ArialMT'" font-size="12">A05</text>
<text transform="matrix(1 0 0 1 642.2717 307.4998)" font-family="'ArialMT'" font-size="12">A06</text>
<text transform="matrix(1 0 0 1 603.2571 255.4998)" font-family="'ArialMT'" font-size="12">A07</text>
<text transform="matrix(1 0 0 1 697.6506 722.9617)" font-family="'ArialMT'" font-size="12">E01</text>
<text transform="matrix(1 0 0 1 760.51 744.5476)" font-family="'ArialMT'" font-size="12">E02</text>
<text transform="matrix(1 0 0 1 681.7122 598.2468)" font-family="'ArialMT'" font-size="12">B10</text>
<text transform="matrix(1 0 0 1 658.9338 556.1521)" font-family="'ArialMT'" font-size="12">B09</text>
<text transform="matrix(1 0 0 1 642.2717 537.4392)" font-family="'ArialMT'" font-size="12">B08</text>
<text transform="matrix(1 0 0 1 630.3713 511.1912)" font-family="'ArialMT'" font-size="12">B07</text>
<text transform="matrix(1 0 0 1 601.1311 478.2058)" font-family="'ArialMT'" font-size="12">B06</text>
<text transform="matrix(1 0 0 1 581.7502 455.4294)" font-family="'ArialMT'" font-size="12">B05</text>
<text transform="matrix(1 0 0 1 568.5764 432.9929)" font-family="'ArialMT'" font-size="12">B04</text>
<text transform="matrix(1 0 0 1 544.2668 398.49)" font-family="'ArialMT'" font-size="12">B03</text>
<text transform="matrix(1 0 0 1 528.7092 370.531)" font-family="'ArialMT'" font-size="12">B02</text>
<text transform="matrix(1 0 0 1 581.7502 670.8748)" font-family="'ArialMT'" font-size="12">C05</text>
<text transform="matrix(1 0 0 1 557.6956 634.5759)" font-family="'ArialMT'" font-size="12">C04</text>
<text transform="matrix(1 0 0 1 534.9163 608.4861)" font-family="'ArialMT'" font-size="12">C03</text>
<text transform="matrix(1 0 0 1 410.5588 432.9929)" font-family="'ArialMT'" font-size="12">C02</text>
<text transform="matrix(1 0 0 1 387.7161 408.9436)" font-family="'ArialMT'" font-size="12">C01</text>
<text transform="matrix(1 0 0 1 426.5178 480.1912)" font-family="'AdobeSongStd-Light-GBpc-EUC-H'" font-size="12">休息厅</text>
<text transform="matrix(1 0 0 1 365.4646 720.4109)" font-family="'ArialMT'" font-size="12">D05</text>
<text transform="matrix(1 0 0 1 365.4646 693.3015)" font-family="'ArialMT'" font-size="12">D04</text>
<text transform="matrix(1 0 0 1 354.6272 662.0701)" font-family="'ArialMT'" font-size="12">D03</text>
<text transform="matrix(1 0 0 1 349.0168 634.5759)" font-family="'ArialMT'" font-size="12">D02</text>
<text transform="matrix(1 0 0 1 344.2571 608.4861)" font-family="'ArialMT'" font-size="12">D01</text>
<text transform="matrix(1 0 0 1 458.2434 693.9802)" font-family="'AdobeSongStd-Light-GBpc-EUC-H'" font-size="12">砖地</text>
<text transform="matrix(1 0 0 1 139.4998 556.1521)" font-family="'AdobeSongStd-Light-GBpc-EUC-H'" font-size="12">篮球场</text>
<text transform="matrix(1 0 0 1 615.2424 172.9421)" font-family="'AdobeSongStd-Light-GBpc-EUC-H'" font-size="12">行人通道</text>
</svg>
