<?xml version="1.0" standalone="no"?><!DOCTYPE svg PUBLIC "-//W3C//DTD SVG 1.1//EN" "http://www.w3.org/Graphics/SVG/1.1/DTD/svg11.dtd"><svg t="1510131415674" class="icon" style="" viewBox="0 0 1024 1024" version="1.1" xmlns="http://www.w3.org/2000/svg" p-id="1563" xmlns:xlink="http://www.w3.org/1999/xlink" width="200" height="200"><defs><style type="text/css"></style></defs><path d="M511.366 62.391c-247.651 0-448.393 200.772-448.393 448.396 0 247.648 200.742 448.391 448.393 448.391 247.648 0 448.393-200.742 448.393-448.391 0.001-247.624-200.744-448.396-448.393-448.396zM669.47 629.668c10.946 10.949 10.946 28.711 0 39.657-10.949 10.949-28.711 10.949-39.657 0l-118.719-118.75-119.547 119.542c-11.054 11.03-28.923 11.03-39.953 0-11.03-11.027-11.03-28.899 0-39.929l119.542-119.571-118.72-118.722c-10.952-10.946-10.952-28.705 0-39.624 10.916-10.949 28.678-10.949 39.627 0L510.762 470.99 631.21 350.575c11.027-11.033 28.896-11.033 39.926 0 11.033 11.027 11.033 28.899 0 39.929L550.718 510.949 669.47 629.668z" fill="#333333" p-id="1564"></path></svg>