<?xml version="1.0" standalone="no"?><!DOCTYPE svg PUBLIC "-//W3C//DTD SVG 1.1//EN" "http://www.w3.org/Graphics/SVG/1.1/DTD/svg11.dtd"><svg t="1496737569333" class="icon" style="" viewBox="0 0 1024 1024" version="1.1" xmlns="http://www.w3.org/2000/svg" p-id="1546" xmlns:xlink="http://www.w3.org/1999/xlink" width="32" height="32"><defs><style type="text/css"></style></defs><path d="M286.062199 784.463117l-45.306914-45.311435c-12.511788-12.511788-12.511788-32.801907-0.00226-45.309174l181.238958-181.238958-181.236698-181.232177c-12.511788-12.514049-12.511788-32.801907 0-45.313695l45.306914-45.306914c12.514049-12.509528 32.797386-12.509528 45.311435 0.00226l181.232177 181.236698 181.236698-181.234437c12.511788-12.514049 32.801907-12.511788 45.311435 0l45.313695 45.311435c12.505007 12.505007 12.507267 32.797386-0.004521 45.306914l-181.234437 181.234437 181.236698 181.236698c12.509528 12.507267 12.507267 32.797386 0.00226 45.306914l-45.313695 45.309174c-12.509528 12.514049-32.797386 12.514049-45.309174 0l-181.234437-181.234437-181.236698 181.236698C318.859585 796.977166 298.576247 796.977166 286.062199 784.463117z" p-id="1547"></path></svg>