<?xml version="1.0" standalone="no"?><!DOCTYPE svg PUBLIC "-//W3C//DTD SVG 1.1//EN" "http://www.w3.org/Graphics/SVG/1.1/DTD/svg11.dtd"><svg t="1510058886138" class="icon" style="" viewBox="0 0 1024 1024" version="1.1" xmlns="http://www.w3.org/2000/svg" p-id="5943" xmlns:xlink="http://www.w3.org/1999/xlink" width="200" height="200"><defs><style type="text/css"></style></defs><path d="M561.589418 160.625304m-97.140411 0a94.928 94.928 0 1 0 194.280822 0 94.928 94.928 0 1 0-194.280822 0Z" p-id="5944"></path><path d="M762.601548 473.204415c-48.089251-13.464663-109.643166-46.165436-136.573515-121.184013-26.930349-75.018577-90.407056-86.560448-138.496308-86.560448S282.711873 377.87628 282.711873 377.87628c-32.700773 28.853142-60.630892 187.659007-27.930119 195.353246 32.700773 7.694239 36.547381-44.24162 55.783491-103.872742s109.643166-100.025111 109.643166-100.025111 5.770424 71.171969-11.541871 111.566982c-17.312294 40.395012-32.700773 82.712817-42.318828 178.89132-9.618055 96.178503-46.165436 105.795535-109.643166 180.815135s-17.312294 109.643166 11.541871 105.795535 169.273265-161.579025 184.661743-201.974038c15.388479-40.395012 19.23611-107.71935 19.23611-107.71935s0 0 63.47773 53.859675 67.324338 132.725884 86.560448 223.13294 67.324338 26.930349 67.324338-13.464663c0-40.395012 7.694239-157.732417-28.853142-203.897853-36.547381-46.165436-107.71935-100.025111-107.71935-151.961994s34.624589-107.71935 34.624589-107.71935c9.618055 48.089251 96.178503 88.484264 161.579025 98.101295C814.538431 544.376385 810.6908 486.669078 762.601548 473.204415z" p-id="5945"></path></svg>