<?xml version="1.0" standalone="no"?><!DOCTYPE svg PUBLIC "-//W3C//DTD SVG 1.1//EN" "http://www.w3.org/Graphics/SVG/1.1/DTD/svg11.dtd"><svg t="1498788044356" class="icon" style="" viewBox="0 0 1024 1024" version="1.1" xmlns="http://www.w3.org/2000/svg" p-id="3139" xmlns:xlink="http://www.w3.org/1999/xlink" width="48" height="48"><defs><style type="text/css"></style></defs><path d="M354.133333 765.098667c5.973333-8.021333 14.336-21.504 17.408-31.402667l41.984-125.781333c17.408 34.986667 45.397333 66.389333 80.384 87.381333l-24.405333 69.973333c-3.413333 10.410667-21.162667 46.08-27.989333 55.978667l-94.378667 143.36c-13.994667 24.405333-48.981333 31.402667-73.386667 13.994667-24.405333-13.994667-31.402667-48.981333-17.408-69.973334l97.792-143.530666z" p-id="3140" fill="#ffffff"></path><path d="M434.517333 478.378667l24.405334-108.373334-41.984 41.984-3.413334 3.413334-66.389333 139.776c-10.410667 20.992-34.986667 31.402667-59.392 20.992-20.992-10.410667-31.402667-34.986667-20.992-55.978667l66.389333-139.776c2.56-5.632 10.410667-17.408 13.994667-20.992l111.786667-108.373333c13.994667-13.994667 31.914667-16.384 52.736-15.701334 11.093333 0.341333 20.309333 1.877333 31.061333 5.290667 65.706667 19.968 108.373333 87.381333 90.794667 153.770667l-6.997334 27.989333-20.992 87.381333-6.997333 34.986667c7.68 11.605333 7.850667 12.117333 13.312 20.821333l81.066667 153.941334c10.752 20.821333 16.384 27.648 24.405333 59.392l24.405333 171.349333c3.413333 27.989333-13.994667 55.978667-45.397333 59.392-27.989333 3.413333-55.978667-13.994667-59.392-41.984 0 0-19.456-147.114667-41.984-199.168l-38.4-73.386667c0.341333-3.584-160.426667-69.973333-122.026667-216.746666zM514.901333 114.858667c0 48.298667 39.082667 87.381333 87.381334 87.381333s87.381333-39.082667 87.381333-87.381333-39.082667-87.381333-87.381333-87.381334-87.381333 39.082667-87.381334 87.381334z" p-id="3141" fill="#ffffff"></path><path d="M714.069333 565.76l-69.973333-38.4 20.992-87.381333 87.381333 45.397333c20.992 10.410667 27.989333 38.4 17.408 59.392-10.24 24.576-34.816 34.986667-55.808 20.992z" p-id="3142" fill="#ffffff"></path></svg>